<?xml version="1.0" encoding="utf-8"?>
<!-- Generator: Adobe Illustrator 24.1.2, SVG Export Plug-In . SVG Version: 6.00 Build 0)  -->
<svg version="1.1" id="Слой_1" xmlns="http://www.w3.org/2000/svg" xmlns:xlink="http://www.w3.org/1999/xlink" x="0px" y="0px"
	 viewBox="0 0 200 200" style="enable-background:new 0 0 200 200;" xml:space="preserve">
<style type="text/css">
	.st0{fill:#FFFFFF;}
</style>
<path class="st0" d="M154.6,42.1c16,9.7,36.2,13.6,42.7,24.2c6.5,10.7-0.6,28.1-2,47.3c-1.5,19.2,2.9,40.1-5.4,52
	c-8.3,11.7-29.4,14.3-49.5,19.7c-20.1,5.4-39.2,13.5-61.3,14.9c-22.1,1.3-47.2-3.9-61-18.8S2,141.8,1.7,118.9
	c-0.3-22.9,1.4-44,8.6-64.6C17.4,34,30,14.3,48.3,5.5c18.3-8.7,42.4-6.4,60.2,2.5C126.5,16.9,138.4,32.4,154.6,42.1z"/>
</svg>
